<svg width="19" height="19" viewBox="0 0 19 19" fill="none" xmlns="http://www.w3.org/2000/svg">
<path d="M11.2501 5.24994C11.0974 5.40572 11.0119 5.61515 11.0119 5.83328C11.0119 6.0514 11.0974 6.26084 11.2501 6.41661L12.5835 7.74994C12.7392 7.90263 12.9487 7.98816 13.1668 7.98816C13.3849 7.98816 13.5944 7.90263 13.7501 7.74994L16.8918 4.60828C17.3108 5.53427 17.4377 6.56597 17.2555 7.5659C17.0733 8.56582 16.5907 9.48648 15.872 10.2052C15.1533 10.9239 14.2327 11.4065 13.2327 11.5887C12.2328 11.7708 11.2011 11.644 10.2751 11.2249L4.51679 16.9833C4.18527 17.3148 3.73563 17.501 3.26679 17.501C2.79795 17.501 2.34831 17.3148 2.01679 16.9833C1.68527 16.6518 1.49902 16.2021 1.49902 15.7333C1.49902 15.2644 1.68527 14.8148 2.01679 14.4833L7.77512 8.72494C7.35609 7.79895 7.22922 6.76725 7.41141 5.76732C7.5936 4.7674 8.0762 3.84674 8.79489 3.12804C9.51359 2.40935 10.4342 1.92675 11.4342 1.74456C12.4341 1.56237 13.4658 1.68925 14.3918 2.10828L11.2585 5.24161L11.2501 5.24994Z" stroke="#ffffff" stroke-width="2" stroke-linecap="round" stroke-linejoin="round"/>
</svg>
